# 3ds Max Wavefront OBJ Exporter v0.97b - (c)2007 guruware
# File Created: 16.04.2021 11:39:25

mtllib adjacent_triangles.mtl

#
# object Plane001
#

v  0.000000 0.000000 0.000000
v  2.500000 0.000000 0.000000
v  2.500000 2.500000 0.000000
v  5.000000 0.000000 0.000000
v  5.000000 2.500000 0.000000
v  5.000000 5.000000 0.000000
# 6 vertices

vn 0.000000 0.000000 1.000000
vn 0.000000 0.000000 1.000000
vn 0.000000 0.000000 1.000000
vn 0.000000 0.000000 1.000000
vn 0.000000 0.000000 1.000000
vn 0.000000 0.000000 1.000000
vn 0.000000 0.000000 1.000000
vn 0.000000 0.000000 1.000000
vn 0.000000 0.000000 1.000000
vn 0.000000 0.000000 1.000000
vn 0.000000 0.000000 1.000000
vn 0.000000 0.000000 1.000000
# 12 vertex normals

vt 0.500000 0.500000 0.000000
vt 0.750000 0.500000 0.000000
vt 0.750000 0.750000 0.000000
vt 1.000000 0.500000 0.000000
vt 1.000000 0.750000 0.000000
vt 1.000000 1.000000 0.000000
# 6 texture coords

o Plane001
g Plane001
usemtl wire_214229166
s 1
f 1/1/1 2/2/2 3/3/3 
f 2/2/4 4/4/5 5/5/6 
f 5/5/7 3/3/8 2/2/9 
f 3/3/10 5/5/11 6/6/12 
# 4 faces

